<svg xmlns="http://www.w3.org/2000/svg" viewBox="0 0 36 56"><defs><style>.cls-1{fill:#ea4335;stroke:#d73534;}.cls-2{fill:#970909;}</style></defs><title>Ресурс 2</title><g id="Слой_2" data-name="Слой 2"><g id="svg3455"><g id="g3477"><path id="path4337-3" class="cls-1" d="M5,5.57A13.76,13.76,0,0,0,.5,15.51C.64,23,4.47,25.76,10.58,36a89,89,0,0,1,6.68,17.16A11,11,0,0,0,18,55.49c.14.1.43-1,.74-2.15a89.56,89.56,0,0,1,6.68-17.16C31.53,26,35.36,23.13,35.5,15.7a13.79,13.79,0,0,0-4.45-9.94A20.06,20.06,0,0,0,18,.5,19.09,19.09,0,0,0,5,5.57Z"/><ellipse id="path3049" class="cls-2" cx="18" cy="15.79" rx="6.69" ry="5.87"/></g></g></g></svg>